<svg width="18" height="18" viewBox="0 0 18 18" fill="none" xmlns="http://www.w3.org/2000/svg">
<g clip-path="url(#clip0_11_100)">
<path d="M16.5 8.30997V8.99997C16.4991 10.6173 15.9754 12.191 15.007 13.4863C14.0386 14.7817 12.6775 15.7293 11.1265 16.1879C9.57557 16.6465 7.91794 16.5914 6.40085 16.0309C4.88376 15.4704 3.58849 14.4345 2.70822 13.0778C1.82795 11.721 1.40984 10.116 1.51626 8.50221C1.62267 6.8884 2.24791 5.35222 3.29871 4.12278C4.34951 2.89334 5.76959 2.03651 7.34714 1.68008C8.92469 1.32366 10.5752 1.48673 12.0525 2.14497" stroke="black" stroke-width="2" stroke-linecap="round" stroke-linejoin="round"/>
<path d="M16.5 3L9 10.5075L6.75 8.2575" stroke="black" stroke-width="2" stroke-linecap="round" stroke-linejoin="round"/>
</g>
<defs>
<clipPath id="clip0_11_100">
<rect width="18" height="18" fill="white"/>
</clipPath>
</defs>
</svg>
