<svg width="18" height="18" viewBox="0 0 18 18" fill="none" xmlns="http://www.w3.org/2000/svg">
<g clip-path="url(#clip0_38_648)">
<path d="M6.75 14.25C3 15.375 3 12.375 1.5 12M12 16.5V13.5975C12.0281 13.2399 11.9798 12.8804 11.8583 12.5428C11.7367 12.2053 11.5447 11.8976 11.295 11.64C13.65 11.3775 16.125 10.485 16.125 6.39C16.1248 5.34287 15.722 4.3359 15 3.5775C15.3419 2.66138 15.3177 1.64876 14.9325 0.749999C14.9325 0.749999 14.0475 0.487499 12 1.86C10.281 1.39412 8.46899 1.39412 6.75 1.86C4.7025 0.487499 3.8175 0.749999 3.8175 0.749999C3.43228 1.64876 3.40811 2.66138 3.75 3.5775C3.0226 4.34152 2.61939 5.3576 2.625 6.4125C2.625 10.4775 5.1 11.37 7.455 11.6625C7.20825 11.9175 7.01795 12.2216 6.89648 12.5549C6.77502 12.8883 6.72511 13.2435 6.75 13.5975V16.5" stroke="#C92061" stroke-width="2" stroke-linecap="round" stroke-linejoin="round"/>
</g>
<defs>
<clipPath id="clip0_38_648">
<rect width="18" height="18" fill="white"/>
</clipPath>
</defs>
</svg>
