<svg width="24" height="24" viewBox="0 0 24 24" fill="none" xmlns="http://www.w3.org/2000/svg">
<g clip-path="url(#clip0_18_317)">
<path d="M5.31891 14.5034L4.4835 17.6221L1.43011 17.6867C0.517594 15.9942 0 14.0577 0 11.9999C0 10.01 0.483938 8.13353 1.34175 6.48123H1.34241L4.06078 6.97961L5.25159 9.68167C5.00236 10.4083 4.86652 11.1883 4.86652 11.9999C4.86661 12.8808 5.02617 13.7248 5.31891 14.5034Z" fill="#FBBB00"/>
<path d="M23.7904 9.75821C23.9282 10.4841 24.0001 11.2338 24.0001 12C24.0001 12.8591 23.9098 13.6971 23.7377 14.5055C23.1535 17.2562 21.6272 19.6582 19.5127 21.358L19.512 21.3573L16.0881 21.1826L15.6035 18.1576C17.0065 17.3347 18.103 16.047 18.6806 14.5055H12.2639V9.75821H18.7742H23.7904Z" fill="#518EF8"/>
<path d="M19.5122 21.3575L19.5128 21.3581C17.4564 23.0111 14.844 24.0001 12.0003 24.0001C7.43042 24.0001 3.45725 21.4458 1.43042 17.6869L5.31922 14.5036C6.33261 17.2082 8.94162 19.1335 12.0003 19.1335C13.315 19.1335 14.5467 18.7781 15.6036 18.1577L19.5122 21.3575Z" fill="#28B446"/>
<path d="M19.6595 2.76262L15.772 5.94525C14.6782 5.26153 13.3852 4.86656 11.9999 4.86656C8.872 4.86656 6.21419 6.88017 5.25157 9.68175L1.34233 6.48131H1.34167C3.33883 2.63077 7.36211 0 11.9999 0C14.9116 0 17.5812 1.03716 19.6595 2.76262Z" fill="#F14336"/>
</g>
<defs>
<clipPath id="clip0_18_317">
<rect width="24" height="24" fill="white"/>
</clipPath>
</defs>
</svg>
