<svg width="18" height="18" viewBox="0 0 18 18" fill="none" xmlns="http://www.w3.org/2000/svg">
<path d="M15.63 3.4575C15.2469 3.07426 14.7921 2.77024 14.2915 2.56282C13.7909 2.35539 13.2544 2.24863 12.7125 2.24863C12.1706 2.24863 11.6341 2.35539 11.1335 2.56282C10.6329 2.77024 10.1781 3.07426 9.795 3.4575L9 4.2525L8.205 3.4575C7.43123 2.68373 6.38177 2.24904 5.2875 2.24904C4.19322 2.24904 3.14377 2.68373 2.37 3.4575C1.59623 4.23127 1.16153 5.28073 1.16153 6.375C1.16153 7.46928 1.59623 8.51873 2.37 9.2925L3.165 10.0875L9 15.9225L14.835 10.0875L15.63 9.2925C16.0132 8.90944 16.3173 8.45461 16.5247 7.95402C16.7321 7.45343 16.8389 6.91687 16.8389 6.375C16.8389 5.83314 16.7321 5.29658 16.5247 4.79599C16.3173 4.29539 16.0132 3.84057 15.63 3.4575V3.4575Z" stroke="#841341" stroke-width="2" stroke-linecap="round" stroke-linejoin="round"/>
</svg>
