<svg width="18" height="18" viewBox="0 0 18 18" fill="none" xmlns="http://www.w3.org/2000/svg">
<g clip-path="url(#clip0_11_107)">
<path d="M9 16.5C13.1421 16.5 16.5 13.1421 16.5 9C16.5 4.85786 13.1421 1.5 9 1.5C4.85786 1.5 1.5 4.85786 1.5 9C1.5 13.1421 4.85786 16.5 9 16.5Z" stroke="black" stroke-width="2" stroke-linecap="round" stroke-linejoin="round"/>
<path d="M6.81748 6.74998C6.99381 6.24873 7.34184 5.82606 7.79994 5.55683C8.25805 5.2876 8.79665 5.18918 9.32036 5.27901C9.84407 5.36884 10.3191 5.64112 10.6613 6.04762C11.0035 6.45413 11.1908 6.96862 11.19 7.49998C11.19 8.99998 8.93998 9.74998 8.93998 9.74998" stroke="black" stroke-width="2" stroke-linecap="round" stroke-linejoin="round"/>
<path d="M9 12.75H9.0075" stroke="black" stroke-width="2" stroke-linecap="round" stroke-linejoin="round"/>
</g>
<defs>
<clipPath id="clip0_11_107">
<rect width="18" height="18" fill="white"/>
</clipPath>
</defs>
</svg>
