<svg width="24" height="24" viewBox="0 0 24 24" fill="none" xmlns="http://www.w3.org/2000/svg">
<g clip-path="url(#clip0_18_315)">
<path d="M20.449 20.4494H16.893V14.8804C16.893 13.5524 16.8693 11.8429 15.0435 11.8429C13.1913 11.8429 12.9079 13.2898 12.9079 14.7837V20.449H9.352V8.9969H12.7657V10.562H12.8135C13.1552 9.97781 13.6488 9.49726 14.242 9.17148C14.8351 8.8457 15.5055 8.68691 16.1818 8.712C19.786 8.712 20.4505 11.0827 20.4505 14.1669L20.449 20.4494ZM5.3395 7.43156C4.19978 7.43175 3.27569 6.50794 3.2755 5.36822C3.27532 4.2285 4.19903 3.3044 5.33875 3.30422C6.47847 3.30394 7.40257 4.22775 7.40275 5.36747C7.40285 5.91478 7.18553 6.43972 6.7986 6.82681C6.41167 7.2139 5.88682 7.43144 5.3395 7.43156ZM7.11757 20.4495H3.55778V8.9969H7.11747V20.4494L7.11757 20.4495ZM22.2218 0.0016857H1.77091C0.804347 -0.00918929 0.0116904 0.765092 -0.00012207 1.73165V22.2679C0.0113154 23.2349 0.803878 24.0099 1.77082 23.9998H22.2218C23.1908 24.0118 23.9865 23.2368 23.9999 22.2679V1.73006C23.9861 0.761623 23.1903 -0.0125643 22.2218 9.19548e-05" fill="#0A66C2"/>
</g>
<defs>
<clipPath id="clip0_18_315">
<rect width="24" height="24" fill="white"/>
</clipPath>
</defs>
</svg>
