<svg width="18" height="18" viewBox="0 0 18 18" fill="none" xmlns="http://www.w3.org/2000/svg">
<path d="M16 7.54545C16 12.6364 9 17 9 17C9 17 2 12.6364 2 7.54545C2 5.80949 2.7375 4.14463 4.05025 2.91712C5.36301 1.68961 7.14348 1 9 1C10.8565 1 12.637 1.68961 13.9497 2.91712C15.2625 4.14463 16 5.80949 16 7.54545Z" stroke="black" stroke-width="2" stroke-linecap="round" stroke-linejoin="round"/>
<path d="M9 9.75C10.2426 9.75 11.25 8.74264 11.25 7.5C11.25 6.25736 10.2426 5.25 9 5.25C7.75736 5.25 6.75 6.25736 6.75 7.5C6.75 8.74264 7.75736 9.75 9 9.75Z" stroke="black" stroke-width="2" stroke-linecap="round" stroke-linejoin="round"/>
</svg>
