<svg width="18" height="18" viewBox="0 0 18 18" fill="none" xmlns="http://www.w3.org/2000/svg">
<path d="M15.75 9.5925C15.632 10.8692 15.1529 12.0858 14.3687 13.1001C13.5845 14.1144 12.5276 14.8843 11.3218 15.3199C10.1159 15.7555 8.81099 15.8386 7.55963 15.5596C6.30827 15.2805 5.16225 14.6509 4.25567 13.7443C3.34909 12.8378 2.71946 11.6917 2.44043 10.4404C2.16141 9.18901 2.24454 7.88406 2.6801 6.67822C3.11566 5.47238 3.88563 4.41552 4.89991 3.63131C5.9142 2.8471 7.13085 2.36798 8.4075 2.25C7.66006 3.2612 7.30039 4.50709 7.3939 5.76106C7.48741 7.01503 8.0279 8.19379 8.91705 9.08295C9.80621 9.9721 10.985 10.5126 12.2389 10.6061C13.4929 10.6996 14.7388 10.3399 15.75 9.5925V9.5925Z" stroke="black" stroke-width="2" stroke-linecap="round" stroke-linejoin="round"/>
</svg>
