<svg width="18" height="18" viewBox="0 0 18 18" fill="none" xmlns="http://www.w3.org/2000/svg">
<g clip-path="url(#clip0_11_133)">
<path d="M16.5 12.69V14.94C16.5009 15.1488 16.4581 15.3556 16.3744 15.547C16.2907 15.7384 16.168 15.9102 16.0141 16.0514C15.8602 16.1926 15.6784 16.3001 15.4806 16.367C15.2827 16.4339 15.073 16.4588 14.865 16.44C12.5571 16.1892 10.3403 15.4006 8.39251 14.1375C6.58038 12.986 5.04401 11.4496 3.89251 9.63747C2.62499 7.68088 1.83619 5.45322 1.59001 3.13497C1.57127 2.92757 1.59592 2.71854 1.66239 2.52119C1.72886 2.32384 1.83569 2.14249 1.97609 1.98869C2.11648 1.83489 2.28736 1.71201 2.47785 1.62787C2.66834 1.54372 2.87427 1.50017 3.08251 1.49997H5.33251C5.69649 1.49639 6.04935 1.62528 6.32533 1.86262C6.60131 2.09996 6.78157 2.42956 6.83251 2.78997C6.92748 3.51002 7.1036 4.21702 7.35751 4.89747C7.45842 5.16592 7.48026 5.45766 7.42044 5.73813C7.36062 6.01861 7.22166 6.27606 7.02001 6.47997L6.06751 7.43247C7.13518 9.31013 8.68985 10.8648 10.5675 11.9325L11.52 10.98C11.7239 10.7783 11.9814 10.6394 12.2619 10.5795C12.5423 10.5197 12.8341 10.5416 13.1025 10.6425C13.783 10.8964 14.49 11.0725 15.21 11.1675C15.5743 11.2189 15.9071 11.4024 16.1449 11.6831C16.3828 11.9638 16.5091 12.3222 16.5 12.69Z" stroke="black" stroke-width="2" stroke-linecap="round" stroke-linejoin="round"/>
</g>
<defs>
<clipPath id="clip0_11_133">
<rect width="18" height="18" fill="white"/>
</clipPath>
</defs>
</svg>
