<svg width="18" height="18" viewBox="0 0 18 18" fill="none" xmlns="http://www.w3.org/2000/svg">
<g clip-path="url(#clip0_11_275)">
<path d="M17.25 2.25C16.5318 2.7566 15.7366 3.14408 14.895 3.3975C14.4433 2.87813 13.843 2.51002 13.1753 2.34294C12.5076 2.17587 11.8046 2.21789 11.1616 2.46334C10.5185 2.70878 9.96633 3.1458 9.57974 3.71528C9.19314 4.28477 8.99077 4.95925 9 5.6475V6.3975C7.68198 6.43167 6.37596 6.13936 5.19826 5.54658C4.02056 4.95381 3.00774 4.07897 2.25 3C2.25 3 -0.75 9.75 6 12.75C4.4554 13.7985 2.61537 14.3242 0.75 14.25C7.5 18 15.75 14.25 15.75 5.625C15.7493 5.41609 15.7292 5.20769 15.69 5.0025C16.4555 4.24762 16.9956 3.29453 17.25 2.25Z" stroke="black" stroke-width="2" stroke-linecap="round" stroke-linejoin="round"/>
</g>
<defs>
<clipPath id="clip0_11_275">
<rect width="18" height="18" fill="white"/>
</clipPath>
</defs>
</svg>
