<svg width="18" height="18" viewBox="0 0 18 18" fill="none" xmlns="http://www.w3.org/2000/svg">
<path d="M15 16V14.1579C15 13.3204 14.6839 12.5171 14.1213 11.9249C13.5587 11.3327 12.7956 11 12 11C9.71769 11.8709 8.41413 12.0152 6 11C5.20435 11 4.44129 11.3327 3.87868 11.9249C3.31607 12.5171 3 13.3204 3 14.1579V16" stroke="black" stroke-width="2" stroke-linecap="round" stroke-linejoin="round"/>
<path d="M9 8.25C10.6569 8.25 12 6.90685 12 5.25C12 3.59315 10.6569 2.25 9 2.25C7.34315 2.25 6 3.59315 6 5.25C6 6.90685 7.34315 8.25 9 8.25Z" stroke="black" stroke-width="2" stroke-linecap="round" stroke-linejoin="round"/>
</svg>
