<svg width="1000" height="178" viewBox="0 0 1000 178" fill="none" xmlns="http://www.w3.org/2000/svg">
<g clip-path="url(#clip0_11_750)">
<path d="M55.82 53.05H23.96L58.52 96.99L74.44 76.73L55.82 53.05Z" fill="#851342"/>
<path d="M74.45 117.25L93.04 140.88H124.9L90.38 96.99L74.45 117.25Z" fill="#851342"/>
<path d="M0 171.43H31.86L74.45 117.25L58.52 96.99L0 171.43Z" fill="#CA2262"/>
<path d="M148.94 22.5H117.08L74.44 76.73L90.38 96.99L148.94 22.5Z" fill="#CA2262"/>
<path d="M847.82 22.41H819.91V53H804.43V76.89H819.91V140.93H847.82V76.89H863.31V53H847.82V22.41Z" fill="#1D1D1B"/>
<path d="M904.59 53H876.5V140.93H904.59V53Z" fill="#1D1D1B"/>
<path d="M890.65 4.45001C885.8 4.45001 881.79 5.92001 878.6 8.85001C875.42 11.79 873.82 15.54 873.82 20.13C873.82 24.72 875.42 28.42 878.6 31.22C881.79 34.02 885.8 35.42 890.65 35.42C895.5 35.42 899.35 34.02 902.6 31.22C905.85 28.42 907.47 24.72 907.47 20.13C907.47 15.54 905.85 11.79 902.6 8.85001C899.35 5.92001 895.36 4.45001 890.65 4.45001Z" fill="#1D1D1B"/>
<path d="M962.24 77.28C965.74 75.24 969.66 74.22 974 74.22C977.18 74.22 980.43 74.7 983.75 75.65C987.06 76.61 990.16 78.04 993.02 79.95C995.89 81.87 998.21 84.23 1000 87.03V58.74C996.94 56.44 993.08 54.6 988.44 53.19C983.78 51.79 978.15 51.09 971.52 51.09C961.7 51.09 952.98 53 945.33 56.82C937.68 60.65 931.66 65.97 927.27 72.79C922.87 79.6 920.68 87.66 920.68 96.96C920.68 106.26 922.88 114.17 927.27 121.05C931.67 127.93 937.69 133.29 945.33 137.1C952.98 140.93 961.7 142.84 971.52 142.84C978.15 142.84 983.78 142.1 988.44 140.64C993.09 139.17 996.94 137.23 1000 134.81V106.71C998.21 109.52 995.95 111.87 993.21 113.79C990.47 115.7 987.47 117.13 984.22 118.09C980.97 119.04 977.56 119.52 974 119.52C969.66 119.52 965.74 118.6 962.24 116.75C958.74 114.9 955.94 112.32 953.83 109.01C951.73 105.69 950.67 101.68 950.67 96.96C950.67 92.63 951.72 88.77 953.83 85.39C955.93 82.02 958.73 79.31 962.24 77.27V77.28Z" fill="#1D1D1B"/>
<path d="M220.24 110.54C218.19 114.36 215.33 117.23 211.64 119.14C207.94 121.05 203.54 122 198.45 122C194.12 122 190.39 120.98 187.27 118.95C184.14 116.91 181.81 114.01 180.29 110.25C179.43 108.13 178.9 105.7 178.56 103.08H245.67C245.8 102.06 245.86 100.92 245.86 99.64V95.63C245.86 86.19 244.01 78.17 240.32 71.54C236.62 64.91 231.27 59.85 224.27 56.34C217.26 52.84 208.66 51.09 198.46 51.09C190.81 51.09 183.93 52.13 177.82 54.24C171.7 56.34 166.48 59.37 162.15 63.32C157.81 67.27 154.53 72.09 152.31 77.75C150.08 83.43 148.97 89.82 148.97 96.96C148.97 106.27 151.01 114.35 155.09 121.24C159.16 128.12 164.93 133.45 172.38 137.2C179.84 140.96 188.72 142.84 199.05 142.84C210.26 142.84 219.75 140.68 227.54 136.34C235.31 132.01 241.56 125.51 246.27 116.84L220.28 110.54H220.24ZM183.15 76.9C184.8 74.74 186.87 73.11 189.36 72.02C191.85 70.94 194.75 70.4 198.06 70.4C201.37 70.4 204.34 71.16 206.95 72.69C209.56 74.22 211.51 76.36 212.78 79.1C213.81 81.31 214.31 84.03 214.51 87.03H179.08C179.21 86.37 179.28 85.63 179.43 85.02C180.25 81.77 181.5 79.06 183.15 76.9Z" fill="#1D1D1B"/>
<path d="M394.66 22.41H366.76V53H351.27V76.89H366.76V140.93H394.66V76.89H410.15V53H394.66V22.41Z" fill="#1D1D1B"/>
<path d="M479.92 119.14C476.22 121.05 471.82 122 466.73 122C462.4 122 458.67 120.98 455.55 118.95C452.42 116.91 450.09 114.01 448.57 110.25C447.71 108.13 447.18 105.7 446.84 103.08H513.95C514.08 102.06 514.14 100.92 514.14 99.64V95.63C514.14 86.19 512.29 78.17 508.6 71.54C504.9 64.91 499.55 59.85 492.55 56.34C485.54 52.84 476.94 51.09 466.74 51.09C459.09 51.09 452.21 52.13 446.1 54.24C439.98 56.34 434.76 59.37 430.43 63.32C426.09 67.27 422.81 72.09 420.59 77.75C418.36 83.43 417.25 89.82 417.25 96.96C417.25 106.27 419.29 114.35 423.37 121.24C427.44 128.12 433.21 133.45 440.66 137.2C448.12 140.96 457 142.84 467.33 142.84C478.54 142.84 488.03 140.68 495.81 136.34C503.58 132.01 509.83 125.51 514.54 116.84L488.55 110.54C486.5 114.36 483.64 117.23 479.95 119.14H479.92ZM451.44 76.89C453.09 74.73 455.16 73.1 457.65 72.01C460.14 70.93 463.04 70.39 466.35 70.39C469.66 70.39 472.63 71.15 475.24 72.68C477.85 74.21 479.8 76.35 481.07 79.09C482.1 81.3 482.6 84.02 482.8 87.02H447.37C447.5 86.36 447.57 85.62 447.72 85.01C448.54 81.76 449.79 79.05 451.44 76.89Z" fill="#1D1D1B"/>
<path d="M579.54 50.89C574.58 50.89 569.89 52.49 565.5 55.67C562.32 57.97 559.71 61.08 557.37 64.57V52.99H528.7V140.92H557.37V97.53C557.37 93.32 557.97 89.76 559.19 86.82C560.4 83.89 562.09 81.69 564.26 80.23C566.42 78.77 568.85 78.03 571.52 78.03C574.19 78.03 576.2 78.48 577.93 79.37C579.65 80.26 581.27 81.47 582.8 83L595.42 57.96C594.02 56.04 591.82 54.39 588.83 52.99C585.83 51.59 582.75 50.89 579.56 50.89H579.54Z" fill="#1D1D1B"/>
<path d="M677.83 54.91C673.18 52.24 667.22 50.9 659.96 50.9C653.59 50.9 648.17 52.24 643.71 54.91C639.25 57.59 635.74 61.35 633.2 66.19V53H603.95V140.93H633.2V87.41C633.2 84.1 633.84 81.2 635.11 78.71C636.38 76.22 638.17 74.37 640.46 73.17C642.76 71.96 645.43 71.35 648.49 71.35C651.55 71.35 654.19 71.95 656.04 73.17C657.89 74.38 659.22 76.2 660.05 78.62C660.88 81.04 661.3 83.97 661.3 87.41V140.93H691.5V84.34C691.5 77.34 690.39 71.35 688.16 66.38C685.93 61.41 682.49 57.59 677.83 54.91Z" fill="#1D1D1B"/>
<path d="M773.37 53.86C767.31 51.64 760.34 50.52 752.44 50.52C744.15 50.52 736.54 51.57 729.6 53.68C722.65 55.78 716.63 58.04 711.53 60.46L721.28 79.96C722.43 79.2 724.44 78.21 727.3 77C730.17 75.8 733.52 74.74 737.34 73.84C741.17 72.96 745.05 72.51 749 72.51C751.68 72.51 754.03 72.76 756.08 73.27C758.12 73.78 759.87 74.58 761.33 75.65C762.8 76.74 763.85 78.14 764.49 79.86C765.13 81.58 765.45 83.47 765.45 85.5V93.23C765.27 93.14 765.15 93.04 764.97 92.95C761.85 91.42 758.12 90.18 753.8 89.23C749.46 88.27 744.75 87.8 739.65 87.8C732 87.8 725.67 88.85 720.63 90.96C715.59 93.06 711.77 96.19 709.16 100.33C706.55 104.47 705.24 109.34 705.24 114.95C705.24 120.94 706.67 126.04 709.54 130.24C712.41 134.45 716.2 137.61 720.92 139.7C725.63 141.8 730.79 142.86 736.41 142.86C742.03 142.86 747.27 141.88 752.18 139.9C757.08 137.92 761.04 135 764.03 131.11C764.58 130.4 765.02 129.63 765.46 128.87V140.96H793.17V78.83C793.17 72.84 791.39 67.75 787.82 63.54C784.25 59.33 779.44 56.12 773.39 53.88L773.37 53.86ZM762.75 115.7C760.97 118.51 758.68 120.6 755.87 122C753.07 123.41 750.01 124.1 746.7 124.1C744.41 124.1 742.3 123.66 740.4 122.77C738.48 121.88 736.99 120.67 735.9 119.14C734.81 117.6 734.28 115.7 734.28 113.4C734.28 111.1 734.75 109.26 735.71 107.85C736.66 106.45 738.2 105.37 740.29 104.6C742.39 103.84 745.1 103.45 748.42 103.45C752.87 103.45 757.12 104.06 761.13 105.27C762.59 105.71 763.92 106.3 765.25 106.89C765.04 110.27 764.3 113.27 762.75 115.69V115.7Z" fill="#1D1D1B"/>
<path d="M346.6 53.05H314.74L245.66 140.88H277.51L346.6 53.05Z" fill="#1D1D1B"/>
<path d="M245.66 53.05H277.51L346.6 140.88H314.74L245.66 53.05Z" fill="#1D1D1B"/>
</g>
<defs>
<clipPath id="clip0_11_750">
<rect width="1000" height="177.32" fill="white"/>
</clipPath>
</defs>
</svg>
